<?xml version="1.0" standalone="no"?>
<!DOCTYPE svg PUBLIC "-//W3C//DTD SVG 20010904//EN"
 "http://www.w3.org/TR/2001/REC-SVG-20010904/DTD/svg10.dtd">
<svg version="1.0" xmlns="http://www.w3.org/2000/svg"
 width="700.000000pt" height="700.000000pt" viewBox="0 0 700.000000 700.000000"
 preserveAspectRatio="xMidYMid meet">
<metadata>
Created by potrace 1.14, written by Peter Selinger 2001-2017
</metadata>
<g transform="translate(0.000000,700.000000) scale(0.100000,-0.100000)"
fill="#000000" stroke="none">
<path d="M604 6339 c-101 -13 -191 -58 -265 -133 -40 -41 -93 -134 -103 -181
-4 -16 -9 -41 -11 -55 -10 -47 -5 -4044 4 -4080 23 -86 34 -112 71 -167 60
-90 144 -150 250 -178 33 -9 119 -14 243 -15 106 -1 219 -3 252 -4 97 -5 312
-18 358 -21 23 -2 77 -7 119 -10 43 -3 86 -8 95 -9 10 -2 47 -7 83 -10 36 -4
75 -8 85 -10 11 -2 56 -9 100 -16 318 -47 618 -134 853 -247 231 -110 401
-241 571 -440 64 -74 120 -105 192 -105 71 1 128 32 185 100 221 264 488 438
864 562 124 40 249 72 420 105 138 27 344 55 515 70 39 4 86 8 105 10 127 12
394 23 629 25 192 2 248 11 326 52 104 55 173 137 211 250 l24 71 0 2021 c0
1112 -2 2035 -4 2051 -6 40 -41 133 -63 166 -72 105 -183 179 -293 195 -118
16 -581 0 -900 -32 -246 -24 -544 -74 -718 -120 -53 -14 -104 -27 -112 -29 -9
-1 -74 -22 -145 -46 -243 -79 -475 -196 -655 -330 -107 -80 -270 -243 -335
-337 -27 -39 -52 -72 -55 -72 -3 0 -19 21 -37 48 -59 90 -172 212 -274 298
-351 293 -824 470 -1499 563 -144 20 -187 25 -330 36 -41 3 -97 8 -125 10
-175 14 -562 22 -631 14z m461 -444 c83 -4 166 -8 185 -10 19 -2 73 -6 120
-10 47 -3 96 -8 110 -10 14 -2 45 -6 70 -9 105 -12 142 -18 278 -41 793 -138
1259 -447 1427 -950 l27 -79 -1 -1665 c0 -916 0 -1681 -1 -1699 l0 -33 -57 40
c-32 21 -79 52 -105 69 -54 35 -311 162 -328 162 -7 0 -24 6 -38 14 -66 36
-371 127 -542 162 -159 32 -194 38 -275 48 -27 4 -57 9 -65 11 -8 2 -40 6 -70
10 -30 3 -71 8 -90 10 -19 3 -60 7 -90 10 -30 3 -73 7 -95 9 -136 15 -305 23
-615 31 -135 4 -247 11 -250 15 -4 6 -5 3895 -1 3921 1 7 159 5 406 -6z m5276
5 c1 -3 2 -888 3 -1968 l1 -1962 -105 -1 c-176 -1 -510 -14 -625 -23 -22 -2
-80 -7 -130 -10 -49 -4 -97 -9 -105 -11 -8 -2 -46 -6 -85 -10 -38 -3 -95 -10
-125 -15 -30 -5 -77 -12 -105 -15 -27 -3 -57 -8 -65 -10 -8 -2 -32 -6 -53 -9
-114 -17 -369 -78 -509 -122 -221 -69 -459 -180 -625 -290 l-93 -63 0 107 c0
59 0 825 0 1703 l0 1596 26 74 c114 319 328 549 661 709 59 29 116 57 126 61
43 22 275 94 402 124 131 32 323 68 425 80 25 3 62 8 83 10 95 12 117 15 192
21 124 10 149 12 315 19 85 4 156 8 157 8 4 5 233 2 234 -3z"/>
</g>
</svg>
